<svg xmlns="http://www.w3.org/2000/svg" viewBox="0 0 840 220" width="840" height="220">
  <defs>
    <linearGradient id="fill" x1="0" y1="0" x2="0" y2="1">
      <stop offset="0%" stop-color="#4ec9ff" stop-opacity="0.18"/>
      <stop offset="100%" stop-color="#4ec9ff" stop-opacity="0.01"/>
    </linearGradient>
    <filter id="glow">
      <feGaussianBlur stdDeviation="2" result="b"/>
      <feMerge><feMergeNode in="b"/><feMergeNode in="SourceGraphic"/></feMerge>
    </filter>
  </defs>

  <!-- Background -->
  <rect width="840" height="220" fill="#0d1117" rx="8"/>

  <!-- Grid lines -->
  <g stroke="#1e2a1e" stroke-width="1">
    <line x1="20" y1="55" x2="820" y2="55"/>
    <line x1="20" y1="100" x2="820" y2="100"/>
    <line x1="20" y1="145" x2="820" y2="145"/>
    <line x1="20" y1="190" x2="820" y2="190"/>
    <line x1="220" y1="20" x2="220" y2="195"/>
    <line x1="420" y1="20" x2="420" y2="195"/>
    <line x1="620" y1="20" x2="620" y2="195"/>
    <line x1="820" y1="20" x2="820" y2="195"/>
  </g>

  <!-- Y axis labels -->
  <g font-family="'SF Mono', 'Fira Mono', monospace" font-size="10" fill="#4ec9ff" opacity="0.4" text-anchor="end">
    <text x="16" y="58">2.0</text>
    <text x="16" y="103">1.5</text>
    <text x="16" y="148">1.0</text>
    <text x="16" y="193">0.5</text>
  </g>

  <!-- X axis labels -->
  <g font-family="'SF Mono', 'Fira Mono', monospace" font-size="10" fill="#4ec9ff" opacity="0.4" text-anchor="middle">
    <text x="220" y="210">150s</text>
    <text x="420" y="210">300s</text>
    <text x="620" y="210">450s</text>
    <text x="820" y="210">600s</text>
  </g>

  <!-- Y axis label -->
  <text x="12" y="108" font-family="'SF Mono', 'Fira Mono', monospace" font-size="9"
    fill="#4ec9ff" opacity="0.35" text-anchor="middle"
    transform="rotate(-90, 12, 108)">MiB/s</text>

  <!-- Filled area under curve (real engine points, scaled to 20-195 range) -->
  <path d="M 20,130.7 L 24,150.0 L 28,123.7 L 32,128.4 L 36,90.0 L 40,100.0 L 44,88.6 L 48,103.8 L 52,108.6 L 56,95.0 L 60,93.9 L 64,57.6 L 68,69.6 L 72,51.3 L 76,82.3 L 80,81.4 L 84,93.1 L 88,88.0 L 92,69.7 L 96,78.4 L 100,64.6 L 104,101.7 L 108,98.2 L 112,127.2 L 116,112.1 L 120,108.6 L 124,98.8 L 128,88.7 L 132,111.1 L 136,104.0 L 140,132.3 L 144,106.0 L 148,108.7 L 152,76.7 L 156,71.7 L 160,72.0 L 164,71.4 L 168,92.5 L 172,71.0 L 176,79.9 L 180,41.8 L 184,49.0 L 188,36.6 L 192,55.0 L 196,70.6 L 200,70.6 L 204,82.9 L 208,54.3 L 212,68.5 L 216,49.8 L 220,81.6 L 224,86.4 L 228,105.6 L 232,107.5 L 236,89.4 L 240,92.0 L 244,66.9 L 248,93.2 L 252,83.0 L 256,109.4 L 260,93.8 L 264,86.0 L 268,68.0 L 272,45.2 L 276,56.9 L 280,44.0 L 284,74.0 L 288,54.0 L 292,62.8 L 296,34.4 L 300,28.2 L 304,28.3 L 308,30.4 L 312,61.4 L 316,53.5 L 320,76.3 L 324,47.6 L 328,57.3 L 332,44.2 L 336,61.2 L 340,80.1 L 344,85.8 L 348,104.4 L 352,76.6 L 356,84.9 L 360,54.8 L 364,74.0 L 368,70.6 L 372,85.7 L 376,87.4 L 380,66.7 L 384,63.0 L 388,27.2 L 392,42.9 L 396,27.1 L 400,54.7 L 404,46.8 L 408,47.0 L 412,35.3 L 416,13.4 L 420,25.5 L 424,15.1 L 428,53.4 L 432,46.9 L 436,69.6 L 440,51.7 L 444,48.6 L 448,47.6 L 452,46.5 L 456,78.2 L 460,74.1 L 464,101.8 L 468,74.4 L 472,78.5 L 476,54.3 L 480,57.6 L 484,66.8 L 488,67.1 L 492,85.3 L 496,56.6 L 500,60.5 L 504,22.0 L 508,31.4 L 512,22.7 L 516,38.5 L 520,48.6 L 524,37.6 L 528,42.4 L 532,10.0 L 536,26.7 L 540,13.1 L 544,47.4 L 548,52.2 L 552,65.8 L 556,65.4 L 560,47.2 L 564,57.7 L 568,42.7 L 572,78.8 L 576,74.1 L 580,100.0 L 584,83.8 L 588,75.4 L 592,63.9 L 596,48.5 L 600,68.9 L 604,58.5 L 608,85.4 L 612,58.7 L 616,60.2 L 620,30.3 L 624,24.7 L 628,29.0 L 632,29.8 L 636,56.3 L 640,38.8 L 644,53.0 L 648,20.4 L 652,31.3 L 656,24.7 L 660,45.5 L 664,66.7 L 668,68.5 L 672,84.6 L 676,56.6 L 680,71.2 L 684,52.0 L 688,81.2 L 692,85.4 L 696,100.5 L 700,101.6 L 704,78.9 L 708,79.5 L 712,50.3 L 716,73.8 L 720,62.0 L 724,86.3 L 728,72.1 L 732,63.3 L 736,48.4 L 740,25.9 L 744,41.6 L 748,31.6 L 752,66.2 L 756,51.9 L 760,65.1 L 764,43.2 L 768,40.1 L 772,46.1 L 776,50.2 L 780,85.8 L 784,80.0 L 788,104.8 L 792,77.4 L 796,85.8 L 800,72.7 L 804,85.8 L 808,104.0 L 812,105.3 L 816,122.4 L 820,90.9 L 820,195 L 20,195 Z"
    fill="url(#fill)"/>

  <!-- Curve line -->
  <polyline points="20,130.7 24,150.0 28,123.7 32,128.4 36,90.0 40,100.0 44,88.6 48,103.8 52,108.6 56,95.0 60,93.9 64,57.6 68,69.6 72,51.3 76,82.3 80,81.4 84,93.1 88,88.0 92,69.7 96,78.4 100,64.6 104,101.7 108,98.2 112,127.2 116,112.1 120,108.6 124,98.8 128,88.7 132,111.1 136,104.0 140,132.3 144,106.0 148,108.7 152,76.7 156,71.7 160,72.0 164,71.4 168,92.5 172,71.0 176,79.9 180,41.8 184,49.0 188,36.6 192,55.0 196,70.6 200,70.6 204,82.9 208,54.3 212,68.5 216,49.8 220,81.6 224,86.4 228,105.6 232,107.5 236,89.4 240,92.0 244,66.9 248,93.2 252,83.0 256,109.4 260,93.8 264,86.0 268,68.0 272,45.2 276,56.9 280,44.0 284,74.0 288,54.0 292,62.8 296,34.4 300,28.2 304,28.3 308,30.4 312,61.4 316,53.5 320,76.3 324,47.6 328,57.3 332,44.2 336,61.2 340,80.1 344,85.8 348,104.4 352,76.6 356,84.9 360,54.8 364,74.0 368,70.6 372,85.7 376,87.4 380,66.7 384,63.0 388,27.2 392,42.9 396,27.1 400,54.7 404,46.8 408,47.0 412,35.3 416,13.4 420,25.5 424,15.1 428,53.4 432,46.9 436,69.6 440,51.7 444,48.6 448,47.6 452,46.5 456,78.2 460,74.1 464,101.8 468,74.4 472,78.5 476,54.3 480,57.6 484,66.8 488,67.1 492,85.3 496,56.6 500,60.5 504,22.0 508,31.4 512,22.7 516,38.5 520,48.6 524,37.6 528,42.4 532,10.0 536,26.7 540,13.1 544,47.4 548,52.2 552,65.8 556,65.4 560,47.2 564,57.7 568,42.7 572,78.8 576,74.1 580,100.0 584,83.8 588,75.4 592,63.9 596,48.5 600,68.9 604,58.5 608,85.4 612,58.7 616,60.2 620,30.3 624,24.7 628,29.0 632,29.8 636,56.3 640,38.8 644,53.0 648,20.4 652,31.3 656,24.7 660,45.5 664,66.7 668,68.5 672,84.6 676,56.6 680,71.2 684,52.0 688,81.2 692,85.4 696,100.5 700,101.6 704,78.9 708,79.5 712,50.3 716,73.8 720,62.0 724,86.3 728,72.1 732,63.3 736,48.4 740,25.9 744,41.6 748,31.6 752,66.2 756,51.9 760,65.1 764,43.2 768,40.1 772,46.1 776,50.2 780,85.8 784,80.0 788,104.8 792,77.4 796,85.8 800,72.7 804,85.8 808,104.0 812,105.3 816,122.4 820,90.9"
    fill="none" stroke="#4ec9ff" stroke-width="1.5" filter="url(#glow)"/>

  <!-- Mean line -->
  <line x1="20" y1="93" x2="820" y2="93" stroke="#4ec9ff" stroke-width="0.8"
    stroke-dasharray="4,6" opacity="0.25"/>

  <!-- Labels -->
  <text x="30" y="34" font-family="'SF Mono', 'Fira Mono', monospace" font-size="11"
    fill="#4ec9ff" opacity="0.7">upload speed  —  sum of 4 sine components (1200s + 90s + 23s + 7s)</text>
  <text x="650" y="34" font-family="'SF Mono', 'Fira Mono', monospace" font-size="11"
    fill="#4ec9ff" opacity="0.4">declared = ∫ curve dt</text>
</svg>
